<svg width="20" height="20" viewBox="0 0 20 20" fill="none" xmlns="http://www.w3.org/2000/svg">
    <path
            d="M9.99998 19.5C8.69741 19.5 7.46825 19.2503 6.3125 18.7509C5.15673 18.2516 4.14872 17.5718 3.28845 16.7115C2.4282 15.8513 1.7484 14.8432 1.24905 13.6875C0.749683 12.5317 0.5 11.3026 0.5 10C0.5 8.68719 0.749683 7.45546 1.24905 6.30483C1.7484 5.1542 2.4282 4.14875 3.28845 3.28848C4.14872 2.42823 5.15673 1.74843 6.3125 1.24908C7.46825 0.749714 8.69741 0.500031 9.99998 0.500031C11.3128 0.500031 12.5445 0.749714 13.6952 1.24908C14.8458 1.74843 15.8512 2.42823 16.7115 3.28848C17.5718 4.14875 18.2516 5.1542 18.7509 6.30483C19.2503 7.45546 19.5 8.68719 19.5 10C19.5 11.3026 19.2503 12.5317 18.7509 13.6875C18.2516 14.8432 17.5718 15.8513 16.7115 16.7115C15.8512 17.5718 14.8458 18.2516 13.6952 18.7509C12.5445 19.2503 11.3128 19.5 9.99998 19.5ZM9.99998 17.9789C10.5102 17.3019 10.9397 16.6192 11.2885 15.9308C11.6372 15.2423 11.9211 14.4897 12.1404 13.6731H7.85958C8.09163 14.5154 8.37881 15.2808 8.72113 15.9692C9.06343 16.6577 9.48971 17.3276 9.99998 17.9789ZM8.06348 17.7039C7.68014 17.1539 7.33591 16.5285 7.03078 15.8279C6.72564 15.1272 6.48846 14.409 6.31922 13.6731H2.92688C3.45509 14.7115 4.16343 15.584 5.0519 16.2904C5.94038 16.9968 6.94424 17.468 8.06348 17.7039ZM11.9365 17.7039C13.0557 17.468 14.0596 16.9968 14.9481 16.2904C15.8365 15.584 16.5449 14.7115 17.0731 13.6731H13.6807C13.4794 14.4154 13.2262 15.1369 12.9211 15.8375C12.616 16.5382 12.2878 17.1603 11.9365 17.7039ZM2.29805 12.1731H6.01538C5.95256 11.8013 5.90705 11.4369 5.87885 11.0798C5.85065 10.7228 5.83655 10.3628 5.83655 10C5.83655 9.63719 5.85065 9.27725 5.87885 8.92018C5.90705 8.56313 5.95256 8.19871 6.01538 7.82691H2.29805C2.2019 8.16666 2.12818 8.51986 2.0769 8.88653C2.02562 9.2532 1.99998 9.62436 1.99998 10C1.99998 10.3757 2.02562 10.7468 2.0769 11.1135C2.12818 11.4801 2.2019 11.8334 2.29805 12.1731ZM7.51535 12.1731H12.4846C12.5474 11.8013 12.5929 11.4401 12.6212 11.0894C12.6494 10.7388 12.6635 10.3757 12.6635 10C12.6635 9.62436 12.6494 9.26121 12.6212 8.91058C12.5929 8.55993 12.5474 8.19871 12.4846 7.82691H7.51535C7.45253 8.19871 7.40702 8.55993 7.3788 8.91058C7.3506 9.26121 7.3365 9.62436 7.3365 10C7.3365 10.3757 7.3506 10.7388 7.3788 11.0894C7.40702 11.4401 7.45253 11.8013 7.51535 12.1731ZM13.9846 12.1731H17.7019C17.7981 11.8334 17.8718 11.4801 17.9231 11.1135C17.9743 10.7468 18 10.3757 18 10C18 9.62436 17.9743 9.2532 17.9231 8.88653C17.8718 8.51986 17.7981 8.16666 17.7019 7.82691H13.9846C14.0474 8.19871 14.0929 8.56313 14.1211 8.92018C14.1493 9.27725 14.1634 9.63719 14.1634 10C14.1634 10.3628 14.1493 10.7228 14.1211 11.0798C14.0929 11.4369 14.0474 11.8013 13.9846 12.1731ZM13.6807 6.32696H17.0731C16.5384 5.27566 15.8349 4.40321 14.9625 3.70961C14.09 3.01602 13.0814 2.54166 11.9365 2.28653C12.3198 2.86858 12.6608 3.50512 12.9596 4.19616C13.2583 4.88719 13.4987 5.59746 13.6807 6.32696ZM7.85958 6.32696H12.1404C11.9083 5.49106 11.6163 4.72086 11.2644 4.01636C10.9125 3.31187 10.491 2.64681 9.99998 2.02116C9.50894 2.64681 9.08747 3.31187 8.73555 4.01636C8.38362 4.72086 8.09163 5.49106 7.85958 6.32696ZM2.92688 6.32696H6.31922C6.50128 5.59746 6.74167 4.88719 7.0404 4.19616C7.33912 3.50512 7.68014 2.86858 8.06348 2.28653C6.91219 2.54166 5.90193 3.01763 5.03268 3.71443C4.16344 4.41123 3.46151 5.28207 2.92688 6.32696Z"
            fill="#1C1B1F"
    />
</svg>
